<svg width="24" height="24" viewBox="0 0 24 24" fill="none" xmlns="http://www.w3.org/2000/svg">
<path d="M3.85781 13.3032C3.85781 8.08037 8.09189 3.84581 13.3152 3.84581C18.5386 3.84581 22.4093 7.72661 22.7492 12.6408C22.7612 12.4311 22.7674 12.2199 22.7674 12.0072C22.7674 6.06533 17.9501 1.24805 12.0077 1.24805C6.06533 1.24805 1.24805 6.06533 1.24805 12.0077C1.24805 17.9501 6.06533 22.7674 12.0077 22.7674C12.2535 22.7674 12.4973 22.7592 12.7388 22.7429C7.78373 22.4448 3.85733 18.3332 3.85733 13.3032H3.85781Z" fill="#F47521"/>
<path d="M18.5504 13.8361C16.6496 13.8361 15.1084 12.2948 15.1084 10.394C15.1084 8.90314 16.0564 7.63402 17.3821 7.15546C16.3314 6.6025 15.1352 6.28906 13.8656 6.28906C9.68965 6.28906 6.30469 9.6745 6.30469 13.8505C6.30469 18.0265 9.68965 21.4119 13.8656 21.4119C18.0416 21.4119 21.4271 18.0265 21.4271 13.8505C21.4271 13.3772 21.3829 12.914 21.2999 12.4643C20.6716 13.2975 19.6736 13.8361 18.55 13.8361H18.5504Z" fill="#F47521"/>
</svg>
