<svg width="24" height="24" viewBox="0 0 24 24" fill="none" xmlns="http://www.w3.org/2000/svg">
<path d="M21.8482 13.5931H19.588C19.7516 12.538 19.7303 11.4598 19.5225 10.4071C19.2469 9.01068 18.6504 7.69743 17.7804 6.57095C16.9105 5.44448 15.7906 4.5356 14.509 3.91601C13.2276 3.29642 11.8198 2.98307 10.3965 3.0007C8.97328 3.01834 7.5736 3.36644 6.30792 4.01759C5.04223 4.66873 3.94518 5.60507 3.1033 6.75274C2.26142 7.90042 1.69774 9.22803 1.45675 10.6308C1.288 11.6132 1.2807 12.6136 1.43251 13.5931H0.827573C0.370515 13.5931 0 13.9636 0 14.4207C0 14.8777 0.370515 15.2483 0.827573 15.2483H3.39311C3.80447 15.2483 4.13793 15.5818 4.13793 15.993C4.13793 16.4045 3.80447 16.738 3.39311 16.738C2.98175 16.738 2.64829 17.0714 2.64829 17.4827V17.5655C2.64829 18.0225 3.01881 18.3931 3.47587 18.3931H7.86206C8.27342 18.3931 8.60688 18.7265 8.60688 19.1378C8.60688 19.5493 8.27342 19.8827 7.86206 19.8827H4.96552C4.50846 19.8827 4.13793 20.2533 4.13793 20.7103C4.13793 21.1673 4.50846 21.5378 4.96552 21.5378H18.5378C18.995 21.5378 19.3655 21.1673 19.3655 20.7103C19.3655 20.2533 18.995 19.8827 18.5378 19.8827H14.1518C13.7403 19.8827 13.4069 19.5493 13.4069 19.1378C13.4069 18.7265 13.7403 18.3931 14.1518 18.3931H14.4C14.857 18.3931 15.2276 18.0225 15.2276 17.5655V17.3999C15.2276 17.0344 14.9312 16.738 14.5654 16.738C14.1997 16.738 13.9034 16.4416 13.9034 16.0758V15.993C13.9034 15.5818 14.2368 15.2483 14.6483 15.2483H21.8482C22.3052 15.2483 22.6758 14.8777 22.6758 14.4207C22.6758 13.9636 22.3052 13.5931 21.8482 13.5931ZM16.0551 17.5655C16.0551 17.1083 16.4257 16.738 16.8827 16.738H18.7034C19.1604 16.738 19.531 17.1083 19.531 17.5655C19.531 18.0225 19.1604 18.3931 18.7034 18.3931H16.8827C16.4257 18.3931 16.0551 18.0225 16.0551 17.5655ZM24 17.5655C24 17.1083 23.6294 16.738 23.1722 16.738H21.3517C20.8945 16.738 20.5242 17.1083 20.5242 17.5655C20.5242 18.0225 20.8945 18.3931 21.3517 18.3931H23.1722C23.6294 18.3931 24 18.0225 24 17.5655Z" fill="#E96D49"/>
</svg>
